<?xml version="1.0" encoding="UTF-8" standalone="no"?>
<svg
   xmlns:dc="http://purl.org/dc/elements/1.1/"
   xmlns:cc="http://creativecommons.org/ns#"
   xmlns:rdf="http://www.w3.org/1999/02/22-rdf-syntax-ns#"
   xmlns:svg="http://www.w3.org/2000/svg"
   xmlns="http://www.w3.org/2000/svg"
   xmlns:sodipodi="http://sodipodi.sourceforge.net/DTD/sodipodi-0.dtd"
   xmlns:inkscape="http://www.inkscape.org/namespaces/inkscape"
   id="svg2786"
   viewBox="0 0 275.36759 239.34442"
   height="8.4435434cm"
   width="9.7143936cm"
   y="0in"
   x="0in"
   version="1.2"
   sodipodi:docname="pewpew-m4-v7-3mm.svg"
   inkscape:version="0.92.3 (2405546, 2018-03-11)">
  <sodipodi:namedview
     pagecolor="#ffffff"
     bordercolor="#666666"
     borderopacity="1"
     objecttolerance="10"
     gridtolerance="10"
     guidetolerance="10"
     inkscape:pageopacity="0"
     inkscape:pageshadow="2"
     inkscape:window-width="1532"
     inkscape:window-height="1080"
     id="namedview90"
     showgrid="false"
     showguides="true"
     inkscape:guide-bbox="true"
     inkscape:snap-global="true"
     inkscape:snap-bbox="true"
     inkscape:object-paths="true"
     inkscape:snap-intersection-paths="true"
     inkscape:snap-smooth-nodes="true"
     inkscape:snap-center="true"
     inkscape:snap-object-midpoints="true"
     inkscape:zoom="2"
     inkscape:cx="199.03907"
     inkscape:cy="128.71093"
     inkscape:window-x="1982"
     inkscape:window-y="180"
     inkscape:window-maximized="0"
     inkscape:current-layer="svg2786"
     inkscape:snap-bbox-edge-midpoints="true"
     inkscape:bbox-nodes="true"
     fit-margin-top="1"
     fit-margin-left="1"
     fit-margin-right="1"
     fit-margin-bottom="1" />
  <metadata
     id="metadata2792">
    <rdf:RDF>
      <cc:Work
         rdf:about="">
        <dc:title></dc:title>
        <dc:format>image/svg+xml</dc:format>
        <dc:type
           rdf:resource="http://purl.org/dc/dcmitype/StillImage" />
      </cc:Work>
    </rdf:RDF>
  </metadata>
  <defs
     id="defs2790">
    <defs
       id="defs2646" />
    <defs
       id="defs2428" />
    <defs
       id="defs2" />
    <defs
       id="defs4" />
    <marker
       orient="auto"
       refY="0"
       refX="0"
       id="marker9355"
       style="overflow:visible">
      <path
         id="path9353"
         style="fill:#000000;fill-opacity:1;fill-rule:evenodd;stroke:#000000;stroke-width:0.625;stroke-linejoin:round;stroke-opacity:1"
         d="M 8.7185878,4.0337352 -2.2072895,0.01601326 8.7185884,-4.0017078 c -1.7454984,2.3720609 -1.7354408,5.6174519 -6e-7,8.035443 z"
         transform="matrix(-1.1,0,0,-1.1,-1.1,0)"
         inkscape:connector-curvature="0" />
    </marker>
    <marker
       orient="auto"
       refY="0"
       refX="0"
       id="marker9549"
       style="overflow:visible">
      <path
         id="path9547"
         style="fill:#000000;fill-opacity:1;fill-rule:evenodd;stroke:#000000;stroke-width:0.625;stroke-linejoin:round;stroke-opacity:1"
         d="M 8.7185878,4.0337352 -2.2072895,0.01601326 8.7185884,-4.0017078 c -1.7454984,2.3720609 -1.7354408,5.6174519 -6e-7,8.035443 z"
         transform="matrix(1.1,0,0,1.1,1.1,0)"
         inkscape:connector-curvature="0" />
    </marker>
    <marker
       style="overflow:visible"
       id="marker9549-5"
       refX="0"
       refY="0"
       orient="auto">
      <path
         transform="matrix(1.1,0,0,1.1,1.1,0)"
         d="M 8.7185878,4.0337352 -2.2072895,0.01601326 8.7185884,-4.0017078 c -1.7454984,2.3720609 -1.7354408,5.6174519 -6e-7,8.035443 z"
         style="fill:#000000;fill-opacity:1;fill-rule:evenodd;stroke:#000000;stroke-width:0.625;stroke-linejoin:round;stroke-opacity:1"
         id="path9547-3"
         inkscape:connector-curvature="0" />
    </marker>
    <marker
       style="overflow:visible"
       id="marker9467"
       refX="0"
       refY="0"
       orient="auto">
      <path
         transform="matrix(-1.1,0,0,-1.1,-1.1,0)"
         d="M 8.7185878,4.0337352 -2.2072895,0.01601326 8.7185884,-4.0017078 c -1.7454984,2.3720609 -1.7354408,5.6174519 -6e-7,8.035443 z"
         style="fill:#000000;fill-opacity:1;fill-rule:evenodd;stroke:#000000;stroke-width:0.625;stroke-linejoin:round;stroke-opacity:1"
         id="path9465"
         inkscape:connector-curvature="0" />
    </marker>
    <marker
       style="overflow:visible"
       id="marker9355-5"
       refX="0"
       refY="0"
       orient="auto">
      <path
         transform="matrix(-1.1,0,0,-1.1,-1.1,0)"
         d="M 8.7185878,4.0337352 -2.2072895,0.01601326 8.7185884,-4.0017078 c -1.7454984,2.3720609 -1.7354408,5.6174519 -6e-7,8.035443 z"
         style="fill:#000000;fill-opacity:1;fill-rule:evenodd;stroke:#000000;stroke-width:0.625;stroke-linejoin:round;stroke-opacity:1"
         id="path9353-6"
         inkscape:connector-curvature="0" />
    </marker>
    <marker
       orient="auto"
       refY="0"
       refX="0"
       id="Arrow1Send"
       style="overflow:visible">
      <path
         id="path8752"
         d="M 0,0 5,-5 -12.5,0 5,5 Z"
         style="fill:#000000;fill-opacity:1;fill-rule:evenodd;stroke:#000000;stroke-width:1.00000003pt;stroke-opacity:1"
         transform="matrix(-0.2,0,0,-0.2,-1.2,0)"
         inkscape:connector-curvature="0" />
    </marker>
    <marker
       orient="auto"
       refY="0"
       refX="0"
       id="Arrow1Lend"
       style="overflow:visible">
      <path
         id="path8740"
         d="M 0,0 5,-5 -12.5,0 5,5 Z"
         style="fill:#000000;fill-opacity:1;fill-rule:evenodd;stroke:#000000;stroke-width:1.00000003pt;stroke-opacity:1"
         transform="matrix(-0.8,0,0,-0.8,-10,0)"
         inkscape:connector-curvature="0" />
    </marker>
    <marker
       orient="auto"
       refY="0"
       refX="0"
       id="marker9021"
       style="overflow:visible">
      <path
         id="path9019"
         d="M 0,0 5,-5 -12.5,0 5,5 Z"
         style="fill:#000000;fill-opacity:1;fill-rule:evenodd;stroke:#000000;stroke-width:1.00000003pt;stroke-opacity:1"
         transform="matrix(0.8,0,0,0.8,10,0)"
         inkscape:connector-curvature="0" />
    </marker>
    <marker
       orient="auto"
       refY="0"
       refX="0"
       id="Arrow1Lstart"
       style="overflow:visible">
      <path
         id="path8737"
         d="M 0,0 5,-5 -12.5,0 5,5 Z"
         style="fill:#000000;fill-opacity:1;fill-rule:evenodd;stroke:#000000;stroke-width:1.00000003pt;stroke-opacity:1"
         transform="matrix(0.8,0,0,0.8,10,0)"
         inkscape:connector-curvature="0" />
    </marker>
    <defs
       id="defs2646-2" />
    <defs
       id="defs2428-9" />
    <defs
       id="defs2-1" />
    <defs
       id="defs4-2" />
    <marker
       orient="auto"
       refY="0"
       refX="0"
       id="marker9355-0"
       style="overflow:visible">
      <path
         id="path9353-2"
         style="fill:#000000;fill-opacity:1;fill-rule:evenodd;stroke:#000000;stroke-width:0.625;stroke-linejoin:round;stroke-opacity:1"
         d="M 8.7185878,4.0337352 -2.2072895,0.01601326 8.7185884,-4.0017078 c -1.7454984,2.3720609 -1.7354408,5.6174519 -6e-7,8.035443 z"
         transform="matrix(-1.1,0,0,-1.1,-1.1,0)"
         inkscape:connector-curvature="0" />
    </marker>
    <marker
       orient="auto"
       refY="0"
       refX="0"
       id="marker9549-0"
       style="overflow:visible">
      <path
         id="path9547-7"
         style="fill:#000000;fill-opacity:1;fill-rule:evenodd;stroke:#000000;stroke-width:0.625;stroke-linejoin:round;stroke-opacity:1"
         d="M 8.7185878,4.0337352 -2.2072895,0.01601326 8.7185884,-4.0017078 c -1.7454984,2.3720609 -1.7354408,5.6174519 -6e-7,8.035443 z"
         transform="matrix(1.1,0,0,1.1,1.1,0)"
         inkscape:connector-curvature="0" />
    </marker>
    <marker
       style="overflow:visible"
       id="Arrow2Lend"
       refX="0"
       refY="0"
       orient="auto">
      <path
         transform="matrix(-1.1,0,0,-1.1,-1.1,0)"
         d="M 8.7185878,4.0337352 -2.2072895,0.01601326 8.7185884,-4.0017078 c -1.7454984,2.3720609 -1.7354408,5.6174519 -6e-7,8.035443 z"
         style="fill:#000000;fill-opacity:1;fill-rule:evenodd;stroke:#000000;stroke-width:0.625;stroke-linejoin:round;stroke-opacity:1"
         id="path8758"
         inkscape:connector-curvature="0" />
    </marker>
    <marker
       style="overflow:visible"
       id="Arrow2Lstart"
       refX="0"
       refY="0"
       orient="auto">
      <path
         transform="matrix(1.1,0,0,1.1,1.1,0)"
         d="M 8.7185878,4.0337352 -2.2072895,0.01601326 8.7185884,-4.0017078 c -1.7454984,2.3720609 -1.7354408,5.6174519 -6e-7,8.035443 z"
         style="fill:#000000;fill-opacity:1;fill-rule:evenodd;stroke:#000000;stroke-width:0.625;stroke-linejoin:round;stroke-opacity:1"
         id="path8755"
         inkscape:connector-curvature="0" />
    </marker>
    <marker
       style="overflow:visible"
       id="marker9549-53"
       refX="0"
       refY="0"
       orient="auto">
      <path
         transform="matrix(1.1,0,0,1.1,1.1,0)"
         d="M 8.7185878,4.0337352 -2.2072895,0.01601326 8.7185884,-4.0017078 c -1.7454984,2.3720609 -1.7354408,5.6174519 -6e-7,8.035443 z"
         style="fill:#000000;fill-opacity:1;fill-rule:evenodd;stroke:#000000;stroke-width:0.625;stroke-linejoin:round;stroke-opacity:1"
         id="path9547-5"
         inkscape:connector-curvature="0" />
    </marker>
    <marker
       style="overflow:visible"
       id="marker9467-6"
       refX="0"
       refY="0"
       orient="auto">
      <path
         transform="matrix(-1.1,0,0,-1.1,-1.1,0)"
         d="M 8.7185878,4.0337352 -2.2072895,0.01601326 8.7185884,-4.0017078 c -1.7454984,2.3720609 -1.7354408,5.6174519 -6e-7,8.035443 z"
         style="fill:#000000;fill-opacity:1;fill-rule:evenodd;stroke:#000000;stroke-width:0.625;stroke-linejoin:round;stroke-opacity:1"
         id="path9465-2"
         inkscape:connector-curvature="0" />
    </marker>
    <marker
       style="overflow:visible"
       id="marker9355-9"
       refX="0"
       refY="0"
       orient="auto">
      <path
         transform="matrix(-1.1,0,0,-1.1,-1.1,0)"
         d="M 8.7185878,4.0337352 -2.2072895,0.01601326 8.7185884,-4.0017078 c -1.7454984,2.3720609 -1.7354408,5.6174519 -6e-7,8.035443 z"
         style="fill:#000000;fill-opacity:1;fill-rule:evenodd;stroke:#000000;stroke-width:0.625;stroke-linejoin:round;stroke-opacity:1"
         id="path9353-1"
         inkscape:connector-curvature="0" />
    </marker>
    <marker
       orient="auto"
       refY="0"
       refX="0"
       id="Arrow1Send-0"
       style="overflow:visible">
      <path
         id="path8752-9"
         d="M 0,0 5,-5 -12.5,0 5,5 Z"
         style="fill:#000000;fill-opacity:1;fill-rule:evenodd;stroke:#000000;stroke-width:1.00000003pt;stroke-opacity:1"
         transform="matrix(-0.2,0,0,-0.2,-1.2,0)"
         inkscape:connector-curvature="0" />
    </marker>
    <marker
       orient="auto"
       refY="0"
       refX="0"
       id="Arrow1Lend-0"
       style="overflow:visible">
      <path
         id="path8740-6"
         d="M 0,0 5,-5 -12.5,0 5,5 Z"
         style="fill:#000000;fill-opacity:1;fill-rule:evenodd;stroke:#000000;stroke-width:1.00000003pt;stroke-opacity:1"
         transform="matrix(-0.8,0,0,-0.8,-10,0)"
         inkscape:connector-curvature="0" />
    </marker>
    <marker
       orient="auto"
       refY="0"
       refX="0"
       id="marker9021-2"
       style="overflow:visible">
      <path
         id="path9019-6"
         d="M 0,0 5,-5 -12.5,0 5,5 Z"
         style="fill:#000000;fill-opacity:1;fill-rule:evenodd;stroke:#000000;stroke-width:1.00000003pt;stroke-opacity:1"
         transform="matrix(0.8,0,0,0.8,10,0)"
         inkscape:connector-curvature="0" />
    </marker>
    <marker
       orient="auto"
       refY="0"
       refX="0"
       id="Arrow1Lstart-1"
       style="overflow:visible">
      <path
         id="path8737-8"
         d="M 0,0 5,-5 -12.5,0 5,5 Z"
         style="fill:#000000;fill-opacity:1;fill-rule:evenodd;stroke:#000000;stroke-width:1.00000003pt;stroke-opacity:1"
         transform="matrix(0.8,0,0,0.8,10,0)"
         inkscape:connector-curvature="0" />
    </marker>
    <defs
       id="defs2646-7" />
    <defs
       id="defs2428-92" />
    <defs
       id="defs2-0" />
    <defs
       id="defs4-23" />
    <marker
       style="overflow:visible"
       id="marker9549-535"
       refX="0"
       refY="0"
       orient="auto">
      <path
         transform="matrix(1.1,0,0,1.1,1.1,0)"
         d="M 8.7185878,4.0337352 -2.2072895,0.01601326 8.7185884,-4.0017078 c -1.7454984,2.3720609 -1.7354408,5.6174519 -6e-7,8.035443 z"
         style="fill:#000000;fill-opacity:1;fill-rule:evenodd;stroke:#000000;stroke-width:0.625;stroke-linejoin:round;stroke-opacity:1"
         id="path9547-6"
         inkscape:connector-curvature="0" />
    </marker>
    <marker
       style="overflow:visible"
       id="marker9467-2"
       refX="0"
       refY="0"
       orient="auto">
      <path
         transform="matrix(-1.1,0,0,-1.1,-1.1,0)"
         d="M 8.7185878,4.0337352 -2.2072895,0.01601326 8.7185884,-4.0017078 c -1.7454984,2.3720609 -1.7354408,5.6174519 -6e-7,8.035443 z"
         style="fill:#000000;fill-opacity:1;fill-rule:evenodd;stroke:#000000;stroke-width:0.625;stroke-linejoin:round;stroke-opacity:1"
         id="path9465-9"
         inkscape:connector-curvature="0" />
    </marker>
    <marker
       style="overflow:visible"
       id="marker9355-1"
       refX="0"
       refY="0"
       orient="auto">
      <path
         transform="matrix(-1.1,0,0,-1.1,-1.1,0)"
         d="M 8.7185878,4.0337352 -2.2072895,0.01601326 8.7185884,-4.0017078 c -1.7454984,2.3720609 -1.7354408,5.6174519 -6e-7,8.035443 z"
         style="fill:#000000;fill-opacity:1;fill-rule:evenodd;stroke:#000000;stroke-width:0.625;stroke-linejoin:round;stroke-opacity:1"
         id="path9353-27"
         inkscape:connector-curvature="0" />
    </marker>
    <marker
       orient="auto"
       refY="0"
       refX="0"
       id="Arrow1Send-3"
       style="overflow:visible">
      <path
         id="path8752-6"
         d="M 0,0 5,-5 -12.5,0 5,5 Z"
         style="fill:#000000;fill-opacity:1;fill-rule:evenodd;stroke:#000000;stroke-width:1.00000003pt;stroke-opacity:1"
         transform="matrix(-0.2,0,0,-0.2,-1.2,0)"
         inkscape:connector-curvature="0" />
    </marker>
    <marker
       orient="auto"
       refY="0"
       refX="0"
       id="Arrow1Lend-2"
       style="overflow:visible">
      <path
         id="path8740-61"
         d="M 0,0 5,-5 -12.5,0 5,5 Z"
         style="fill:#000000;fill-opacity:1;fill-rule:evenodd;stroke:#000000;stroke-width:1.00000003pt;stroke-opacity:1"
         transform="matrix(-0.8,0,0,-0.8,-10,0)"
         inkscape:connector-curvature="0" />
    </marker>
    <marker
       orient="auto"
       refY="0"
       refX="0"
       id="marker9021-8"
       style="overflow:visible">
      <path
         id="path9019-7"
         d="M 0,0 5,-5 -12.5,0 5,5 Z"
         style="fill:#000000;fill-opacity:1;fill-rule:evenodd;stroke:#000000;stroke-width:1.00000003pt;stroke-opacity:1"
         transform="matrix(0.8,0,0,0.8,10,0)"
         inkscape:connector-curvature="0" />
    </marker>
    <marker
       orient="auto"
       refY="0"
       refX="0"
       id="Arrow1Lstart-9"
       style="overflow:visible">
      <path
         id="path8737-2"
         d="M 0,0 5,-5 -12.5,0 5,5 Z"
         style="fill:#000000;fill-opacity:1;fill-rule:evenodd;stroke:#000000;stroke-width:1.00000003pt;stroke-opacity:1"
         transform="matrix(0.8,0,0,0.8,10,0)"
         inkscape:connector-curvature="0" />
    </marker>
    <defs
       id="defs2646-0" />
    <defs
       id="defs2428-2" />
    <defs
       id="defs2-3" />
    <defs
       id="defs4-7" />
    <defs
       id="defs2646-9" />
    <defs
       id="defs2428-0" />
    <defs
       id="defs2-12" />
    <defs
       id="defs4-0" />
    <marker
       style="overflow:visible"
       id="marker9355-06"
       refX="0"
       refY="0"
       orient="auto">
      <path
         transform="matrix(-1.1,0,0,-1.1,-1.1,0)"
         d="M 8.7185878,4.0337352 -2.2072895,0.01601326 8.7185884,-4.0017078 c -1.7454984,2.3720609 -1.7354408,5.6174519 -6e-7,8.035443 z"
         style="fill:#000000;fill-opacity:1;fill-rule:evenodd;stroke:#000000;stroke-width:0.625;stroke-linejoin:round;stroke-opacity:1"
         id="path9353-3"
         inkscape:connector-curvature="0" />
    </marker>
    <marker
       style="overflow:visible"
       id="marker9549-9"
       refX="0"
       refY="0"
       orient="auto">
      <path
         transform="matrix(1.1,0,0,1.1,1.1,0)"
         d="M 8.7185878,4.0337352 -2.2072895,0.01601326 8.7185884,-4.0017078 c -1.7454984,2.3720609 -1.7354408,5.6174519 -6e-7,8.035443 z"
         style="fill:#000000;fill-opacity:1;fill-rule:evenodd;stroke:#000000;stroke-width:0.625;stroke-linejoin:round;stroke-opacity:1"
         id="path9547-0"
         inkscape:connector-curvature="0" />
    </marker>
    <marker
       orient="auto"
       refY="0"
       refX="0"
       id="marker9549-5-8"
       style="overflow:visible">
      <path
         id="path9547-3-3"
         style="fill:#000000;fill-opacity:1;fill-rule:evenodd;stroke:#000000;stroke-width:0.625;stroke-linejoin:round;stroke-opacity:1"
         d="M 8.7185878,4.0337352 -2.2072895,0.01601326 8.7185884,-4.0017078 c -1.7454984,2.3720609 -1.7354408,5.6174519 -6e-7,8.035443 z"
         transform="matrix(1.1,0,0,1.1,1.1,0)"
         inkscape:connector-curvature="0" />
    </marker>
    <marker
       orient="auto"
       refY="0"
       refX="0"
       id="marker9467-8"
       style="overflow:visible">
      <path
         id="path9465-7"
         style="fill:#000000;fill-opacity:1;fill-rule:evenodd;stroke:#000000;stroke-width:0.625;stroke-linejoin:round;stroke-opacity:1"
         d="M 8.7185878,4.0337352 -2.2072895,0.01601326 8.7185884,-4.0017078 c -1.7454984,2.3720609 -1.7354408,5.6174519 -6e-7,8.035443 z"
         transform="matrix(-1.1,0,0,-1.1,-1.1,0)"
         inkscape:connector-curvature="0" />
    </marker>
    <marker
       orient="auto"
       refY="0"
       refX="0"
       id="marker9355-5-3"
       style="overflow:visible">
      <path
         id="path9353-6-1"
         style="fill:#000000;fill-opacity:1;fill-rule:evenodd;stroke:#000000;stroke-width:0.625;stroke-linejoin:round;stroke-opacity:1"
         d="M 8.7185878,4.0337352 -2.2072895,0.01601326 8.7185884,-4.0017078 c -1.7454984,2.3720609 -1.7354408,5.6174519 -6e-7,8.035443 z"
         transform="matrix(-1.1,0,0,-1.1,-1.1,0)"
         inkscape:connector-curvature="0" />
    </marker>
    <marker
       style="overflow:visible"
       id="Arrow1Send-00"
       refX="0"
       refY="0"
       orient="auto">
      <path
         transform="matrix(-0.2,0,0,-0.2,-1.2,0)"
         style="fill:#000000;fill-opacity:1;fill-rule:evenodd;stroke:#000000;stroke-width:1.00000003pt;stroke-opacity:1"
         d="M 0,0 5,-5 -12.5,0 5,5 Z"
         id="path8752-5"
         inkscape:connector-curvature="0" />
    </marker>
    <marker
       style="overflow:visible"
       id="Arrow1Lend-03"
       refX="0"
       refY="0"
       orient="auto">
      <path
         transform="matrix(-0.8,0,0,-0.8,-10,0)"
         style="fill:#000000;fill-opacity:1;fill-rule:evenodd;stroke:#000000;stroke-width:1.00000003pt;stroke-opacity:1"
         d="M 0,0 5,-5 -12.5,0 5,5 Z"
         id="path8740-1"
         inkscape:connector-curvature="0" />
    </marker>
    <marker
       style="overflow:visible"
       id="marker9021-80"
       refX="0"
       refY="0"
       orient="auto">
      <path
         transform="matrix(0.8,0,0,0.8,10,0)"
         style="fill:#000000;fill-opacity:1;fill-rule:evenodd;stroke:#000000;stroke-width:1.00000003pt;stroke-opacity:1"
         d="M 0,0 5,-5 -12.5,0 5,5 Z"
         id="path9019-1"
         inkscape:connector-curvature="0" />
    </marker>
    <marker
       style="overflow:visible"
       id="Arrow1Lstart-7"
       refX="0"
       refY="0"
       orient="auto">
      <path
         transform="matrix(0.8,0,0,0.8,10,0)"
         style="fill:#000000;fill-opacity:1;fill-rule:evenodd;stroke:#000000;stroke-width:1.00000003pt;stroke-opacity:1"
         d="M 0,0 5,-5 -12.5,0 5,5 Z"
         id="path8737-9"
         inkscape:connector-curvature="0" />
    </marker>
    <defs
       id="defs2646-2-1" />
    <defs
       id="defs2428-9-0" />
    <defs
       id="defs2-1-3" />
    <defs
       id="defs4-2-5" />
    <marker
       style="overflow:visible"
       id="marker9355-0-9"
       refX="0"
       refY="0"
       orient="auto">
      <path
         transform="matrix(-1.1,0,0,-1.1,-1.1,0)"
         d="M 8.7185878,4.0337352 -2.2072895,0.01601326 8.7185884,-4.0017078 c -1.7454984,2.3720609 -1.7354408,5.6174519 -6e-7,8.035443 z"
         style="fill:#000000;fill-opacity:1;fill-rule:evenodd;stroke:#000000;stroke-width:0.625;stroke-linejoin:round;stroke-opacity:1"
         id="path9353-2-4"
         inkscape:connector-curvature="0" />
    </marker>
    <marker
       style="overflow:visible"
       id="marker9549-0-8"
       refX="0"
       refY="0"
       orient="auto">
      <path
         transform="matrix(1.1,0,0,1.1,1.1,0)"
         d="M 8.7185878,4.0337352 -2.2072895,0.01601326 8.7185884,-4.0017078 c -1.7454984,2.3720609 -1.7354408,5.6174519 -6e-7,8.035443 z"
         style="fill:#000000;fill-opacity:1;fill-rule:evenodd;stroke:#000000;stroke-width:0.625;stroke-linejoin:round;stroke-opacity:1"
         id="path9547-7-4"
         inkscape:connector-curvature="0" />
    </marker>
    <marker
       orient="auto"
       refY="0"
       refX="0"
       id="Arrow2Lend-6"
       style="overflow:visible">
      <path
         id="path8758-9"
         style="fill:#000000;fill-opacity:1;fill-rule:evenodd;stroke:#000000;stroke-width:0.625;stroke-linejoin:round;stroke-opacity:1"
         d="M 8.7185878,4.0337352 -2.2072895,0.01601326 8.7185884,-4.0017078 c -1.7454984,2.3720609 -1.7354408,5.6174519 -6e-7,8.035443 z"
         transform="matrix(-1.1,0,0,-1.1,-1.1,0)"
         inkscape:connector-curvature="0" />
    </marker>
    <marker
       orient="auto"
       refY="0"
       refX="0"
       id="Arrow2Lstart-2"
       style="overflow:visible">
      <path
         id="path8755-9"
         style="fill:#000000;fill-opacity:1;fill-rule:evenodd;stroke:#000000;stroke-width:0.625;stroke-linejoin:round;stroke-opacity:1"
         d="M 8.7185878,4.0337352 -2.2072895,0.01601326 8.7185884,-4.0017078 c -1.7454984,2.3720609 -1.7354408,5.6174519 -6e-7,8.035443 z"
         transform="matrix(1.1,0,0,1.1,1.1,0)"
         inkscape:connector-curvature="0" />
    </marker>
    <marker
       orient="auto"
       refY="0"
       refX="0"
       id="marker9549-53-0"
       style="overflow:visible">
      <path
         id="path9547-5-3"
         style="fill:#000000;fill-opacity:1;fill-rule:evenodd;stroke:#000000;stroke-width:0.625;stroke-linejoin:round;stroke-opacity:1"
         d="M 8.7185878,4.0337352 -2.2072895,0.01601326 8.7185884,-4.0017078 c -1.7454984,2.3720609 -1.7354408,5.6174519 -6e-7,8.035443 z"
         transform="matrix(1.1,0,0,1.1,1.1,0)"
         inkscape:connector-curvature="0" />
    </marker>
    <marker
       orient="auto"
       refY="0"
       refX="0"
       id="marker9467-6-0"
       style="overflow:visible">
      <path
         id="path9465-2-3"
         style="fill:#000000;fill-opacity:1;fill-rule:evenodd;stroke:#000000;stroke-width:0.625;stroke-linejoin:round;stroke-opacity:1"
         d="M 8.7185878,4.0337352 -2.2072895,0.01601326 8.7185884,-4.0017078 c -1.7454984,2.3720609 -1.7354408,5.6174519 -6e-7,8.035443 z"
         transform="matrix(-1.1,0,0,-1.1,-1.1,0)"
         inkscape:connector-curvature="0" />
    </marker>
    <marker
       orient="auto"
       refY="0"
       refX="0"
       id="marker9355-9-3"
       style="overflow:visible">
      <path
         id="path9353-1-7"
         style="fill:#000000;fill-opacity:1;fill-rule:evenodd;stroke:#000000;stroke-width:0.625;stroke-linejoin:round;stroke-opacity:1"
         d="M 8.7185878,4.0337352 -2.2072895,0.01601326 8.7185884,-4.0017078 c -1.7454984,2.3720609 -1.7354408,5.6174519 -6e-7,8.035443 z"
         transform="matrix(-1.1,0,0,-1.1,-1.1,0)"
         inkscape:connector-curvature="0" />
    </marker>
    <marker
       style="overflow:visible"
       id="Arrow1Send-0-9"
       refX="0"
       refY="0"
       orient="auto">
      <path
         transform="matrix(-0.2,0,0,-0.2,-1.2,0)"
         style="fill:#000000;fill-opacity:1;fill-rule:evenodd;stroke:#000000;stroke-width:1.00000003pt;stroke-opacity:1"
         d="M 0,0 5,-5 -12.5,0 5,5 Z"
         id="path8752-9-4"
         inkscape:connector-curvature="0" />
    </marker>
    <marker
       style="overflow:visible"
       id="Arrow1Lend-0-9"
       refX="0"
       refY="0"
       orient="auto">
      <path
         transform="matrix(-0.8,0,0,-0.8,-10,0)"
         style="fill:#000000;fill-opacity:1;fill-rule:evenodd;stroke:#000000;stroke-width:1.00000003pt;stroke-opacity:1"
         d="M 0,0 5,-5 -12.5,0 5,5 Z"
         id="path8740-6-9"
         inkscape:connector-curvature="0" />
    </marker>
    <marker
       style="overflow:visible"
       id="marker9021-2-1"
       refX="0"
       refY="0"
       orient="auto">
      <path
         transform="matrix(0.8,0,0,0.8,10,0)"
         style="fill:#000000;fill-opacity:1;fill-rule:evenodd;stroke:#000000;stroke-width:1.00000003pt;stroke-opacity:1"
         d="M 0,0 5,-5 -12.5,0 5,5 Z"
         id="path9019-6-9"
         inkscape:connector-curvature="0" />
    </marker>
    <marker
       style="overflow:visible"
       id="Arrow1Lstart-1-4"
       refX="0"
       refY="0"
       orient="auto">
      <path
         transform="matrix(0.8,0,0,0.8,10,0)"
         style="fill:#000000;fill-opacity:1;fill-rule:evenodd;stroke:#000000;stroke-width:1.00000003pt;stroke-opacity:1"
         d="M 0,0 5,-5 -12.5,0 5,5 Z"
         id="path8737-8-2"
         inkscape:connector-curvature="0" />
    </marker>
    <defs
       id="defs2646-7-0" />
    <defs
       id="defs2428-92-6" />
    <defs
       id="defs2-0-5" />
    <defs
       id="defs4-23-9" />
    <marker
       orient="auto"
       refY="0"
       refX="0"
       id="marker9549-535-5"
       style="overflow:visible">
      <path
         id="path9547-6-6"
         style="fill:#000000;fill-opacity:1;fill-rule:evenodd;stroke:#000000;stroke-width:0.625;stroke-linejoin:round;stroke-opacity:1"
         d="M 8.7185878,4.0337352 -2.2072895,0.01601326 8.7185884,-4.0017078 c -1.7454984,2.3720609 -1.7354408,5.6174519 -6e-7,8.035443 z"
         transform="matrix(1.1,0,0,1.1,1.1,0)"
         inkscape:connector-curvature="0" />
    </marker>
    <marker
       orient="auto"
       refY="0"
       refX="0"
       id="marker9467-2-1"
       style="overflow:visible">
      <path
         id="path9465-9-1"
         style="fill:#000000;fill-opacity:1;fill-rule:evenodd;stroke:#000000;stroke-width:0.625;stroke-linejoin:round;stroke-opacity:1"
         d="M 8.7185878,4.0337352 -2.2072895,0.01601326 8.7185884,-4.0017078 c -1.7454984,2.3720609 -1.7354408,5.6174519 -6e-7,8.035443 z"
         transform="matrix(-1.1,0,0,-1.1,-1.1,0)"
         inkscape:connector-curvature="0" />
    </marker>
    <marker
       orient="auto"
       refY="0"
       refX="0"
       id="marker9355-1-4"
       style="overflow:visible">
      <path
         id="path9353-27-3"
         style="fill:#000000;fill-opacity:1;fill-rule:evenodd;stroke:#000000;stroke-width:0.625;stroke-linejoin:round;stroke-opacity:1"
         d="M 8.7185878,4.0337352 -2.2072895,0.01601326 8.7185884,-4.0017078 c -1.7454984,2.3720609 -1.7354408,5.6174519 -6e-7,8.035443 z"
         transform="matrix(-1.1,0,0,-1.1,-1.1,0)"
         inkscape:connector-curvature="0" />
    </marker>
    <marker
       style="overflow:visible"
       id="Arrow1Send-3-7"
       refX="0"
       refY="0"
       orient="auto">
      <path
         transform="matrix(-0.2,0,0,-0.2,-1.2,0)"
         style="fill:#000000;fill-opacity:1;fill-rule:evenodd;stroke:#000000;stroke-width:1.00000003pt;stroke-opacity:1"
         d="M 0,0 5,-5 -12.5,0 5,5 Z"
         id="path8752-6-2"
         inkscape:connector-curvature="0" />
    </marker>
    <marker
       style="overflow:visible"
       id="Arrow1Lend-2-7"
       refX="0"
       refY="0"
       orient="auto">
      <path
         transform="matrix(-0.8,0,0,-0.8,-10,0)"
         style="fill:#000000;fill-opacity:1;fill-rule:evenodd;stroke:#000000;stroke-width:1.00000003pt;stroke-opacity:1"
         d="M 0,0 5,-5 -12.5,0 5,5 Z"
         id="path8740-61-3"
         inkscape:connector-curvature="0" />
    </marker>
    <marker
       style="overflow:visible"
       id="marker9021-8-3"
       refX="0"
       refY="0"
       orient="auto">
      <path
         transform="matrix(0.8,0,0,0.8,10,0)"
         style="fill:#000000;fill-opacity:1;fill-rule:evenodd;stroke:#000000;stroke-width:1.00000003pt;stroke-opacity:1"
         d="M 0,0 5,-5 -12.5,0 5,5 Z"
         id="path9019-7-9"
         inkscape:connector-curvature="0" />
    </marker>
    <marker
       style="overflow:visible"
       id="Arrow1Lstart-9-2"
       refX="0"
       refY="0"
       orient="auto">
      <path
         transform="matrix(0.8,0,0,0.8,10,0)"
         style="fill:#000000;fill-opacity:1;fill-rule:evenodd;stroke:#000000;stroke-width:1.00000003pt;stroke-opacity:1"
         d="M 0,0 5,-5 -12.5,0 5,5 Z"
         id="path8737-2-4"
         inkscape:connector-curvature="0" />
    </marker>
    <defs
       id="defs2646-0-4" />
    <defs
       id="defs2428-2-4" />
    <defs
       id="defs2-3-9" />
    <defs
       id="defs4-7-9" />
  </defs>
  <path
     style="opacity:1;fill:#b3b3b3;fill-opacity:1;stroke:none;stroke-width:0.28346443;stroke-linecap:round;stroke-linejoin:round;stroke-miterlimit:4;stroke-dasharray:none;stroke-dashoffset:0;stroke-opacity:1;paint-order:markers stroke fill"
     d="M 77.379135,48.861306 V 156.14641 c 0,3.14081 2.528163,5.66895 5.668943,5.66895 h 23.131342 v -5.54737 c 0,-3.14078 2.52813,-5.66894 5.66894,-5.66894 h 55.6655 5.03027 c 0.7852,0 1.41797,-0.6313 1.41797,-1.4165 v -5.75683 -11.9209 -7.85888 c 0,-0.7852 0.63277,-1.4165 1.41796,-1.4165 h 21.96826 c 0.78519,0 1.4165,0.6313 1.4165,1.4165 v 7.85888 22.97021 7.34033 h 20.62939 c 3.14076,0 5.67041,-2.52814 5.67041,-5.66895 V 48.861306 H 90.832254 Z m 8.228023,4.664061 c 1.095769,4.8e-4 1.983728,0.889075 1.983398,1.984862 -4.8e-4,1.095194 -0.888199,1.982917 -1.983398,1.983397 -1.095781,3.15e-4 -1.984392,-0.887633 -1.984862,-1.983397 -3.4e-4,-1.096365 0.888521,-1.985194 1.984862,-1.984862 z m 131.399362,0 c 1.09575,4.8e-4 1.98372,0.889075 1.98339,1.984862 -4.8e-4,1.095194 -0.88821,1.982917 -1.98339,1.983397 -1.09578,3.15e-4 -1.98439,-0.887633 -1.98487,-1.983397 -3.3e-4,-1.096365 0.88852,-1.985194 1.98487,-1.984862 z M 108.79123,54.09812 h 11.17529 c 4.40399,0 8.10519,3.618695 8.02587,8.022946 v 10.059077 h 10.05762 c 4.40493,0 8.0244,3.62092 8.02441,8.025878 v 11.175288 c 0,4.404973 -3.61948,8.025874 -8.02441,8.025874 h -10.05762 v 10.057607 c 0,0.26297 -0.0143,0.52253 -0.0395,0.7793 h 10.46777 22.32274 0.0718 c 0.7852,0 1.41798,0.63278 1.41798,1.41797 v 18.4248 c 0,0.78519 -0.63278,1.41796 -1.41798,1.41796 h -0.0718 -36.12743 c -0.0991,0 -0.19674,-0.0101 -0.29004,-0.0293 -0.66499,-0.133 -1.21582,-0.70727 -1.12793,-1.38867 v -12.59616 h -3.23144 -11.17529 -1.19384 c -0.31248,0 -0.59824,-0.1039 -0.83204,-0.27393 -3.41644,-0.90955 -5.93331,-4.04936 -5.99999,-7.75195 V 99.407183 H 90.7063 c -4.40496,0 -8.024411,-3.621884 -8.02441,-8.025874 V 80.206021 c 0,-4.40399 3.61945,-8.025878 8.02441,-8.025878 h 10.05908 V 62.121066 c 0,-4.404965 3.62187,-8.022946 8.02587,-8.022946 z m 59.68064,0 c 7.55761,3.91e-4 13.68417,6.12695 13.68456,13.684564 4.2e-4,7.558187 -6.12637,13.685639 -13.68456,13.686029 -7.55876,4.2e-4 -13.68645,-6.127272 -13.68603,-13.686029 3.9e-4,-7.558187 6.12784,-13.684985 13.68603,-13.684564 z m 21.11131,0 h 9.18164 4.39014 1.41796 c 7.55762,3.87e-4 13.68418,6.126947 13.68457,13.684564 4.2e-4,7.558187 -6.12638,13.685639 -13.68457,13.686029 -7.55876,4.2e-4 -13.68646,-6.127272 -13.68602,-13.686029 h -1.30372 c -0.78519,0 -1.41796,-0.631306 -1.41796,-1.416503 V 55.516088 c 0,-0.785196 0.63277,-1.417968 1.41796,-1.417968 z m -3.11132,35.999984 c 7.55761,3.9e-4 13.68417,6.12695 13.68456,13.684566 4.2e-4,7.55818 -6.12637,13.68564 -13.68456,13.68603 -7.55876,4.2e-4 -13.68645,-6.12728 -13.68603,-13.68603 3.9e-4,-7.558194 6.12784,-13.684986 13.68603,-13.684566 z M 85.607158,151.62591 c 1.095769,4.8e-4 1.983728,0.88906 1.983398,1.98486 -4.8e-4,1.09519 -0.888199,1.98293 -1.983398,1.98339 -1.095781,3.5e-4 -1.984392,-0.88763 -1.984862,-1.98339 -3.4e-4,-1.0964 0.888521,-1.98519 1.984862,-1.98486 z m 131.397892,0 c 1.09637,-3.3e-4 1.98521,0.88846 1.98486,1.98486 -4.5e-4,1.09576 -0.88906,1.98374 -1.98486,1.98339 -1.09521,-4.6e-4 -1.98292,-0.8882 -1.9834,-1.98339 -3.3e-4,-1.09579 0.88762,-1.98438 1.9834,-1.98486 z"
     id="path1326"
     inkscape:connector-curvature="0" />
  <g
     transform="translate(69.245403,25.63608)"
     id="g1815">
    <path
       style="fill:none;fill-rule:evenodd;stroke:#000000;stroke-width:0.74999958px;stroke-linecap:butt;stroke-linejoin:miter;stroke-opacity:1;marker-start:url(#Arrow2Lend);marker-end:url(#Arrow2Lstart)"
       d="M 8.2754184,14.574835 H 155.96089"
       id="path8735"
       inkscape:connector-curvature="0" />
    <text
       xml:space="preserve"
       style="font-style:normal;font-variant:normal;font-weight:bold;font-stretch:normal;font-size:11.99999332px;line-height:31.99998665px;font-family:sans-serif;-inkscape-font-specification:'sans-serif, Bold';font-variant-ligatures:normal;font-variant-caps:normal;font-variant-numeric:normal;font-feature-settings:normal;text-align:center;letter-spacing:0px;word-spacing:0px;writing-mode:lr-tb;text-anchor:middle;fill:#000000;fill-opacity:1;stroke:none;stroke-width:0.74999958px;stroke-linecap:butt;stroke-linejoin:miter;stroke-opacity:1"
       x="84.265388"
       y="11.616609"
       id="text9339"><tspan
         id="tspan9337"
         x="84.265388"
         y="11.616609"
         style="font-style:normal;font-variant:normal;font-weight:bold;font-stretch:normal;font-size:11.99999332px;font-family:sans-serif;-inkscape-font-specification:'sans-serif, Bold';font-variant-ligatures:normal;font-variant-caps:normal;font-variant-numeric:normal;font-feature-settings:normal;text-align:center;writing-mode:lr-tb;text-anchor:middle;stroke-width:0.74999958px">52.1mm</tspan></text>
  </g>
  <path
     style="opacity:1;fill:#b3b3b3;fill-opacity:1;stroke:none;stroke-width:0.28346443;stroke-linecap:round;stroke-linejoin:round;stroke-miterlimit:4;stroke-dasharray:none;stroke-dashoffset:0;stroke-opacity:1;paint-order:markers stroke fill"
     d="m 233.56855,71.090821 v 99.228469 h -53.55173 v 2.03174 4.60694 c 0,0.78519 -0.63277,1.41796 -1.41797,1.41796 h -11.0874 c -0.78519,0 -1.4165,-0.63277 -1.4165,-1.41796 v -4.60694 -2.03174 H 99.336192 v 23.09326 c 0,3.14078 2.529648,5.66894 5.670408,5.66894 h 10.91308 v -11.55175 -4.8545 c 0,-0.78519 0.63131,-1.4165 1.4165,-1.4165 h 24.94628 c 0.78519,0 1.41797,0.63131 1.41797,1.4165 v 4.8545 11.55175 h 62.68649 v -8.96777 -5.78173 c 0,-0.7852 0.63131,-1.41651 1.4165,-1.41651 h 23.52832 c 0.78519,0 1.41796,0.63131 1.41796,1.41651 v 5.78173 8.96777 l 8.60303,0.001 c 3.1408,0 5.66894,-2.52816 5.66894,-5.66895 V 71.090821 Z m 7.92627,55.883759 c 1.25232,1.4e-4 2.26749,1.01526 2.26758,2.26758 -9e-5,1.25232 -1.01526,2.26749 -2.26758,2.26758 -1.25232,-9e-5 -2.2675,-1.01526 -2.26758,-2.26758 7e-5,-1.25232 1.01526,-2.26744 2.26758,-2.26758 z m 0,32.3994 c 1.25289,8e-5 2.2683,1.01616 2.26758,2.26905 -9e-5,1.25231 -1.01526,2.2675 -2.26758,2.26757 -1.25232,-7e-5 -2.2675,-1.01526 -2.26758,-2.26757 -7.3e-4,-1.25289 1.01469,-2.26896 2.26758,-2.26905 z m -83.31588,24.16699 h 29.99998 c 3.28791,-2e-4 5.95334,2.66522 5.95313,5.95312 v 0.004 c 2.1e-4,3.2879 -2.66523,5.95333 -5.95313,5.95312 l -29.99998,-0.004 c -3.28793,2.1e-4 -5.95333,-2.66522 -5.95312,-5.95312 -2.1e-4,-3.28791 2.66519,-5.95332 5.95312,-5.95312 z m -50.78318,4.91748 c 1.09578,4.7e-4 1.98373,0.88908 1.9834,1.98486 -4.8e-4,1.09523 -0.88819,1.98293 -1.9834,1.9834 -1.09579,3.4e-4 -1.9844,-0.8876 -1.98486,-1.9834 -3.6e-4,-1.09635 0.8885,-1.9852 1.98486,-1.98486 z m 131.39789,0 c 1.09636,-3.4e-4 1.98519,0.88851 1.98486,1.98486 -4.8e-4,1.0958 -0.88907,1.98374 -1.98486,1.9834 -1.0952,-4.7e-4 -1.98292,-0.88817 -1.9834,-1.9834 -3.3e-4,-1.09578 0.88763,-1.98439 1.9834,-1.98486 z"
     id="path5973"
     inkscape:connector-curvature="0" />
  <path
     style="opacity:1;fill:#b3b3b3;fill-opacity:1;stroke:none;stroke-width:0.28346443;stroke-linecap:round;stroke-linejoin:round;stroke-miterlimit:4;stroke-dasharray:none;stroke-dashoffset:0;stroke-opacity:1;paint-order:markers stroke fill"
     d="m 46.199441,70.115904 c 0,6.26158 5.07631,11.33788 11.33788,11.33788 6.26158,0 11.33788,-5.0763 11.33788,-11.33788 0,-6.26159 -5.0763,-11.33751 -11.33788,-11.33751 -6.26157,0 -11.33788,5.07593 -11.33788,11.33751 z"
     id="path1222"
     inkscape:connector-curvature="0"
     sodipodi:nodetypes="ssszs" />
  <path
     style="opacity:1;fill:#b3b3b3;fill-opacity:1;stroke:none;stroke-width:0.28346443;stroke-linecap:round;stroke-linejoin:round;stroke-miterlimit:4;stroke-dasharray:none;stroke-dashoffset:0;stroke-opacity:1;paint-order:markers stroke fill"
     d="m 52.017918,152.31637 c -3.14077,0 -5.668936,2.52813 -5.668936,5.66894 v 11.07715 c 0,0.59145 -0.711817,1.25683 -1.337399,1.25683 H 34.015007 c -3.140785,0 -5.668952,2.52815 -5.668952,5.66894 v 5.66895 5.66894 c 0,3.14078 2.528167,5.66894 5.668952,5.66894 h 10.996576 c 0.625582,0 1.337399,0.6654 1.337399,1.25683 v 11.07715 c 0,3.14081 2.528166,5.66894 5.668936,5.66894 h 5.588382 5.588374 c 3.140781,0 5.66894,-2.52813 5.66894,-5.66894 v -11.07715 c 0,-0.59143 0.711825,-1.25683 1.337407,-1.25683 h 10.996543 c 3.140765,0 5.668905,-2.52816 5.668905,-5.66894 v -5.66894 -5.66895 c 0,-3.14078 -2.52814,-5.66894 -5.668905,-5.66894 H 70.201021 c -0.625582,0 -1.337407,-0.66538 -1.337407,-1.25683 v -11.07715 c 0,-3.14081 -2.528159,-5.66894 -5.66894,-5.66894 H 57.6063 Z"
     id="path1680"
     inkscape:connector-curvature="0"
     sodipodi:nodetypes="ccccccccccccccccccccccccccccc" />
  <path
     sodipodi:nodetypes="ssszs"
     inkscape:connector-curvature="0"
     id="path1263"
     d="m 46.199441,101.29523 c 0,6.26158 5.07631,11.33788 11.33788,11.33788 6.26158,0 11.33788,-5.0763 11.33788,-11.33788 0,-6.261586 -5.0763,-11.337506 -11.33787,-11.337506 -6.26158,0 -11.33789,5.07593 -11.33789,11.337506 z"
     style="opacity:1;fill:#b3b3b3;fill-opacity:1;stroke:none;stroke-width:0.28346443;stroke-linecap:round;stroke-linejoin:round;stroke-miterlimit:4;stroke-dasharray:none;stroke-dashoffset:0;stroke-opacity:1;paint-order:markers stroke fill" />
  <path
     style="opacity:1;fill:#b3b3b3;fill-opacity:1;stroke:none;stroke-width:0.28346443;stroke-linecap:round;stroke-linejoin:round;stroke-miterlimit:4;stroke-dasharray:none;stroke-dashoffset:0;stroke-opacity:1;paint-order:markers stroke fill"
     d="m 46.200933,132.47456 c 0,6.26158 5.076328,11.33788 11.337898,11.33788 6.26158,0 11.33788,-5.0763 11.33788,-11.33788 0,-6.26159 -5.0763,-11.33751 -11.33787,-11.33751 -6.26158,0 -11.337908,5.07593 -11.337908,11.33751 z"
     id="path1265"
     inkscape:connector-curvature="0"
     sodipodi:nodetypes="ssszs" />
</svg>
