<?xml version="1.0" encoding="UTF-8" standalone="no"?>
<svg
   xmlns:dc="http://purl.org/dc/elements/1.1/"
   xmlns:cc="http://creativecommons.org/ns#"
   xmlns:rdf="http://www.w3.org/1999/02/22-rdf-syntax-ns#"
   xmlns:svg="http://www.w3.org/2000/svg"
   xmlns="http://www.w3.org/2000/svg"
   version="1.1"
   id="svg2"
   viewBox="0 0 90.000002 90.000002"
   height="1in"
   width="1in">
  <defs
     id="defs4" />
  <metadata
     id="metadata7">
    <rdf:RDF>
      <cc:Work
         rdf:about="">
        <dc:format>image/svg+xml</dc:format>
        <dc:type
           rdf:resource="http://purl.org/dc/dcmitype/StillImage" />
        <dc:title></dc:title>
      </cc:Work>
    </rdf:RDF>
  </metadata>
  <g
     transform="translate(0,-962.36217)"
     id="layer1">
    <path
       id="rect15"
       transform="matrix(0.93750002,0,0,0.93750002,0,962.36217)"
       d="M 9.0683594 0 C 4.0445295 0 0 4.0445295 0 9.0683594 L 0 86.931641 C 0 91.95547 4.0445295 96 9.0683594 96 L 86.931641 96 C 91.95547 96 96 91.95547 96 86.931641 L 96 9.0683594 C 96 4.0445295 91.95547 0 86.931641 0 L 9.0683594 0 z M 9.6347656 1.0097656 L 86.365234 1.0097656 C 91.143449 1.0097656 94.990234 4.8565512 94.990234 9.6347656 L 94.990234 86.365234 C 94.990234 91.143449 91.143449 94.990234 86.365234 94.990234 L 9.6347656 94.990234 C 4.8565512 94.990234 1.0097656 91.143449 1.0097656 86.365234 L 1.0097656 9.6347656 C 1.0097656 4.8565512 4.8565512 1.0097656 9.6347656 1.0097656 z "
       style="opacity:1;fill:#000000;fill-opacity:1;stroke:none;stroke-width:3.77952766;stroke-linecap:round;stroke-linejoin:round;stroke-miterlimit:4;stroke-dasharray:none;stroke-dashoffset:0;stroke-opacity:1" />
    <path
       id="path24"
       transform="matrix(0.93750002,0,0,0.93750002,0,962.36217)"
       d="M 46.193359 82.425781 C 45.546658 82.425781 44.985243 82.611544 44.507812 82.980469 C 44.034722 83.349393 43.796875 83.818114 43.796875 84.386719 C 43.796875 84.629777 43.840928 84.864208 43.927734 85.089844 C 44.01888 85.311213 44.147569 85.516027 44.3125 85.707031 C 44.481771 85.893627 44.65408 86.062879 44.832031 86.214844 C 45.009983 86.362399 45.221788 86.517165 45.464844 86.677734 C 45.126302 86.860063 44.833333 87.035834 44.585938 87.205078 C 44.338541 87.374323 44.097656 87.569647 43.863281 87.791016 C 43.633247 88.012385 43.457465 88.259781 43.335938 88.533203 C 43.214409 88.802288 43.152344 89.090242 43.152344 89.398438 C 43.152344 89.897566 43.294053 90.35028 43.576172 90.753906 C 43.85829 91.157533 44.229383 91.470037 44.689453 91.691406 C 45.153863 91.912775 45.655165 92.023438 46.193359 92.023438 C 46.705512 92.023437 47.182292 91.9093 47.625 91.683594 C 48.067709 91.457887 48.422743 91.143861 48.6875 90.740234 C 48.956597 90.336608 49.089844 89.888891 49.089844 89.398438 C 49.089844 89.151042 49.049262 88.910163 48.966797 88.675781 C 48.884331 88.437061 48.778646 88.225729 48.648438 88.039062 C 48.522569 87.848129 48.359809 87.655848 48.160156 87.464844 C 47.964844 87.27391 47.771051 87.108062 47.580078 86.964844 C 47.389106 86.817217 47.172743 86.664044 46.929688 86.507812 C 47.198785 86.364595 47.428168 86.227861 47.619141 86.097656 C 47.810113 85.967452 47.997396 85.816231 48.179688 85.642578 C 48.361979 85.464658 48.500217 85.270856 48.595703 85.0625 C 48.69119 84.849878 48.738281 84.625439 48.738281 84.386719 C 48.738281 84.000443 48.618056 83.65542 48.375 83.351562 C 48.131944 83.047776 47.815972 82.816458 47.429688 82.660156 C 47.047743 82.503925 46.636068 82.425781 46.193359 82.425781 z M 52.443359 82.425781 C 51.796658 82.425781 51.235243 82.611544 50.757812 82.980469 C 50.284722 83.349393 50.046875 83.818114 50.046875 84.386719 C 50.046875 84.629777 50.090928 84.864208 50.177734 85.089844 C 50.26888 85.311213 50.397569 85.516027 50.5625 85.707031 C 50.731771 85.893627 50.90408 86.062879 51.082031 86.214844 C 51.259983 86.362399 51.471788 86.517165 51.714844 86.677734 C 51.376302 86.860063 51.083333 87.035834 50.835938 87.205078 C 50.588541 87.374323 50.347656 87.569647 50.113281 87.791016 C 49.883247 88.012385 49.707465 88.259781 49.585938 88.533203 C 49.464409 88.802288 49.402344 89.090242 49.402344 89.398438 C 49.402344 89.897566 49.544053 90.35028 49.826172 90.753906 C 50.10829 91.157533 50.479383 91.470037 50.939453 91.691406 C 51.403863 91.912775 51.905165 92.023438 52.443359 92.023438 C 52.955512 92.023437 53.432292 91.9093 53.875 91.683594 C 54.317709 91.457887 54.672743 91.143861 54.9375 90.740234 C 55.206597 90.336608 55.339844 89.888891 55.339844 89.398438 C 55.339844 89.151042 55.299262 88.910163 55.216797 88.675781 C 55.134331 88.437061 55.028646 88.225729 54.898438 88.039062 C 54.772569 87.848129 54.609809 87.655848 54.410156 87.464844 C 54.214844 87.27391 54.021051 87.108062 53.830078 86.964844 C 53.639106 86.817217 53.422743 86.664044 53.179688 86.507812 C 53.448785 86.364595 53.678168 86.227861 53.869141 86.097656 C 54.060113 85.967452 54.247396 85.816231 54.429688 85.642578 C 54.611979 85.464658 54.750217 85.270856 54.845703 85.0625 C 54.94119 84.849878 54.988281 84.625439 54.988281 84.386719 C 54.988281 84.000443 54.868056 83.65542 54.625 83.351562 C 54.381944 83.047776 54.065972 82.816458 53.679688 82.660156 C 53.297743 82.503925 52.886068 82.425781 52.443359 82.425781 z M 67.169922 82.425781 C 66.401693 82.425781 65.744141 82.697728 65.197266 83.240234 C 64.654731 83.778474 64.382812 84.431005 64.382812 85.199219 C 64.382813 85.485654 64.447917 85.752604 64.578125 86 C 64.712674 86.243058 64.898437 86.454821 65.132812 86.632812 C 65.367188 86.810732 65.617622 86.963546 65.886719 87.09375 C 66.160156 87.223954 66.458116 87.334617 66.779297 87.425781 C 67.044054 87.495257 67.29145 87.576875 67.521484 87.667969 C 67.75152 87.754795 67.977865 87.861983 68.199219 87.992188 C 68.424913 88.118054 68.615235 88.259785 68.771484 88.416016 C 68.927735 88.56798 69.052952 88.748747 69.148438 88.957031 C 69.248264 89.161049 69.298828 89.378899 69.298828 89.613281 C 69.298828 90.15145 69.088976 90.605685 68.667969 90.974609 C 68.246962 91.339196 67.747179 91.521484 67.169922 91.521484 C 66.814019 91.521484 66.455946 91.396265 66.095703 91.144531 C 65.739801 90.892798 65.454861 90.575297 65.242188 90.193359 C 65.029515 89.811422 64.943361 89.445323 64.982422 89.09375 C 64.717665 89.679706 64.379123 90.181016 63.966797 90.597656 C 64.374783 91.053407 64.856554 91.404948 65.412109 91.652344 C 65.967665 91.899739 66.553603 92.023438 67.169922 92.023438 C 67.721138 92.023437 68.23546 91.901261 68.712891 91.658203 C 69.190321 91.415145 69.572917 91.075119 69.859375 90.636719 C 70.145833 90.19839 70.289062 89.713087 70.289062 89.183594 C 70.289062 88.510812 70.025173 87.928385 69.5 87.433594 C 68.979167 86.934465 68.331597 86.576406 67.554688 86.359375 C 67.355035 86.303268 67.205295 86.260686 67.105469 86.234375 C 67.005642 86.203655 66.863932 86.158101 66.681641 86.097656 C 66.499349 86.032447 66.357639 85.977332 66.257812 85.929688 C 66.157986 85.877634 66.04427 85.809051 65.914062 85.726562 C 65.783857 85.639736 65.682728 85.553624 65.613281 85.466797 C 65.548175 85.380041 65.489582 85.277347 65.4375 85.160156 C 65.389756 85.038627 65.367188 84.908411 65.367188 84.769531 C 65.367188 84.261727 65.542969 83.83052 65.894531 83.474609 C 66.246094 83.11436 66.67079 82.933594 67.169922 82.933594 C 67.643013 82.933594 68.054688 83.093356 68.40625 83.410156 C 68.762155 83.72269 68.967449 84.114788 69.019531 84.587891 C 69.210504 84.149491 69.46441 83.757392 69.78125 83.410156 C 69.039063 82.754796 68.168186 82.425781 67.169922 82.425781 z M 75.054688 82.425781 C 74.811632 82.425781 74.455078 82.464818 73.986328 82.542969 C 73.517579 82.616711 73.161024 82.654297 72.917969 82.654297 C 72.77908 82.654297 72.575738 82.633222 72.306641 82.589844 C 72.037543 82.542199 71.834201 82.517578 71.695312 82.517578 C 71.560764 82.517578 71.427084 82.53033 71.296875 82.556641 L 71.1875 83.162109 C 71.387152 83.070945 71.615017 83.025391 71.871094 83.025391 C 71.962241 83.025391 72.040367 83.065949 72.105469 83.148438 C 72.170571 83.226589 72.203125 83.321243 72.203125 83.429688 L 72.384766 91.027344 C 72.384766 91.135788 72.350697 91.22849 72.28125 91.306641 C 72.216146 91.384792 72.13151 91.423828 72.027344 91.423828 C 71.771268 91.423828 71.536893 91.379795 71.324219 91.292969 L 71.427734 91.892578 C 71.579644 91.918889 71.722873 91.931641 71.857422 91.931641 C 71.974609 91.931641 72.150391 91.910565 72.384766 91.867188 C 72.619141 91.82381 72.796441 91.802734 72.917969 91.802734 C 73.039496 91.802734 73.21875 91.82381 73.453125 91.867188 C 73.69184 91.910565 73.869141 91.931641 73.986328 91.931641 C 74.125217 91.931641 74.268447 91.918889 74.416016 91.892578 L 74.519531 91.292969 C 74.302517 91.379795 74.068142 91.423828 73.816406 91.423828 C 73.712242 91.423828 73.626088 91.384792 73.556641 91.306641 C 73.487194 91.22849 73.453125 91.135788 73.453125 91.027344 L 73.523438 88.318359 C 73.957465 88.400848 74.379123 88.441406 74.787109 88.441406 C 75.077908 88.441406 75.326823 88.421924 75.535156 88.382812 C 76.36849 89.476572 76.785156 90.646925 76.785156 91.892578 C 76.984809 91.832134 77.209636 91.802734 77.457031 91.802734 C 77.59158 91.802734 77.794922 91.82381 78.068359 91.867188 C 78.341797 91.910565 78.545139 91.931641 78.679688 91.931641 C 78.822917 91.931641 78.963108 91.918889 79.097656 91.892578 L 79.201172 91.292969 C 78.958116 91.379795 78.686197 91.423828 78.386719 91.423828 C 78.291232 91.423828 78.205078 91.399207 78.126953 91.351562 C 78.053165 91.303847 78.007593 91.238739 77.990234 91.15625 C 77.695096 90.036463 77.245876 88.993284 76.642578 88.025391 C 77.085286 87.786671 77.425347 87.459609 77.664062 87.042969 C 77.907117 86.621991 78.029297 86.127198 78.029297 85.558594 C 78.029297 84.998665 77.897569 84.479322 77.632812 84.001953 C 77.372396 83.520175 77.010851 83.137638 76.550781 82.855469 C 76.095052 82.569033 75.597222 82.425781 75.054688 82.425781 z M 83.537109 82.425781 C 83.059679 82.425781 82.60243 82.508921 82.164062 82.673828 C 81.725695 82.838806 81.331597 83.06817 80.984375 83.363281 C 80.641493 83.658463 80.340495 84.003486 80.080078 84.398438 C 79.824001 84.789051 79.62717 85.223732 79.488281 85.701172 C 79.353733 86.174274 79.285156 86.661027 79.285156 87.160156 C 79.285156 88.019534 79.465929 88.820313 79.826172 89.5625 C 80.190755 90.300349 80.700087 90.894361 81.355469 91.345703 C 82.010851 91.797116 82.738498 92.023438 83.537109 92.023438 C 83.927734 92.023438 84.277778 91.985923 84.585938 91.912109 C 84.898437 91.838367 85.152344 91.748709 85.347656 91.644531 C 85.542969 91.540353 85.721788 91.439684 85.886719 91.339844 C 86.05599 91.235666 86.236762 91.146008 86.427734 91.072266 C 86.623047 90.998452 86.829861 90.960938 87.046875 90.960938 C 86.960069 90.487835 86.916016 89.989999 86.916016 89.464844 C 86.916016 88.679279 87.000651 87.932094 87.169922 87.224609 C 86.718533 87.315774 86.231771 87.361328 85.710938 87.361328 C 85.194445 87.361328 84.711155 87.315774 84.259766 87.224609 C 84.16862 87.623898 83.999349 88.001511 83.751953 88.357422 C 84.229383 88.031875 84.758246 87.869141 85.339844 87.869141 C 85.496093 87.869141 85.619792 87.945692 85.710938 88.097656 C 85.802083 88.24955 85.847656 88.428363 85.847656 88.636719 L 85.847656 90.636719 C 85.626302 90.918888 85.359375 91.136738 85.046875 91.292969 C 84.734375 91.444862 84.400824 91.521484 84.044922 91.521484 C 83.511067 91.521484 83.022786 91.38475 82.580078 91.111328 C 82.13737 90.833568 81.774305 90.46747 81.492188 90.011719 C 81.21441 89.55163 80.999566 89.032287 80.847656 88.455078 C 80.695747 87.877798 80.621094 87.277339 80.621094 86.652344 C 80.621094 86.179242 80.669705 85.725007 80.769531 85.291016 C 80.873698 84.852616 81.021918 84.45552 81.212891 84.099609 C 81.408203 83.743698 81.662109 83.462191 81.974609 83.253906 C 82.29145 83.041213 82.644532 82.933594 83.035156 82.933594 C 83.807726 82.933594 84.465278 83.207062 85.007812 83.753906 C 85.550348 84.296484 85.822266 84.95249 85.822266 85.720703 C 86.182508 85.178125 86.599175 84.710926 87.072266 84.320312 C 86.6773 83.725681 86.167969 83.261885 85.542969 82.927734 C 84.92231 82.593512 84.253255 82.425781 83.537109 82.425781 z M 30.197266 82.515625 C 30.058377 82.515625 29.929688 82.53033 29.8125 82.556641 L 29.708984 83.162109 C 29.891276 83.070945 30.107639 83.025391 30.359375 83.025391 C 30.433158 83.025391 30.475692 83.06747 30.484375 83.154297 C 30.493058 83.241124 30.468536 83.332303 30.412109 83.427734 L 28.84375 86.410156 C 28.418402 85.741712 28.08789 85.098742 27.853516 84.482422 C 27.62348 83.861764 27.507813 83.220676 27.507812 82.556641 C 27.425347 82.556641 27.305121 82.572577 27.144531 82.607422 C 26.983941 82.638 26.863281 82.654297 26.785156 82.654297 C 26.646267 82.654297 26.442925 82.633222 26.173828 82.589844 C 25.904731 82.542199 25.701389 82.517578 25.5625 82.517578 C 25.423611 82.517578 25.28342 82.53033 25.144531 82.556641 L 25.041016 83.162109 C 25.240669 83.070945 25.467015 83.025391 25.71875 83.025391 C 25.831598 83.025391 25.924262 83.072467 25.998047 83.167969 C 26.076175 83.263471 26.129778 83.380651 26.160156 83.519531 C 26.290365 84.170553 26.529731 84.794041 26.876953 85.388672 C 27.228516 85.983303 27.702257 86.666902 28.296875 87.439453 L 26.388672 91.027344 C 26.245443 91.29209 26.012587 91.423828 25.691406 91.423828 C 25.378906 91.423828 25.090928 91.379795 24.826172 91.292969 L 24.929688 91.892578 C 25.107639 91.918889 25.289931 91.931641 25.476562 91.931641 C 25.58507 91.931641 25.744791 91.910565 25.953125 91.867188 C 26.165798 91.82381 26.323567 91.802734 26.427734 91.802734 C 26.536241 91.802734 26.694011 91.82381 26.902344 91.867188 C 27.110677 91.910565 27.266927 91.931641 27.371094 91.931641 C 27.566407 91.931641 27.748698 91.918889 27.917969 91.892578 L 28.029297 91.292969 C 27.76454 91.379795 27.476562 91.423828 27.164062 91.423828 C 27.077258 91.423828 27.015192 91.38327 26.980469 91.300781 C 26.945745 91.213955 26.952256 91.122775 27 91.027344 L 28.628906 87.882812 C 28.941406 88.299452 29.190321 88.63955 29.376953 88.904297 C 29.567926 89.169044 29.776259 89.501102 30.001953 89.900391 C 30.227648 90.295413 30.404948 90.671433 30.535156 91.027344 C 30.574218 91.122775 30.585718 91.213955 30.568359 91.300781 C 30.555338 91.38327 30.511285 91.423828 30.4375 91.423828 C 30.185764 91.423828 29.951388 91.379795 29.734375 91.292969 L 29.839844 91.892578 C 29.991753 91.918889 30.134983 91.931641 30.269531 91.931641 C 30.386719 91.931641 30.5625 91.910565 30.796875 91.867188 C 31.03559 91.82381 31.21441 91.802734 31.335938 91.802734 C 31.453125 91.802734 31.628906 91.82381 31.863281 91.867188 C 32.097656 91.910565 32.27691 91.931641 32.398438 91.931641 C 32.537327 91.931641 32.680556 91.918889 32.828125 91.892578 L 32.931641 91.292969 C 32.714627 91.379795 32.480252 91.423828 32.228516 91.423828 C 32.085286 91.423828 31.955078 91.388048 31.837891 91.318359 C 31.725044 91.248955 31.6454 91.151257 31.597656 91.025391 C 31.471788 90.66948 31.299045 90.290417 31.082031 89.886719 C 30.865018 89.483092 30.679688 89.16407 30.523438 88.929688 C 30.371528 88.690968 30.125651 88.327912 29.787109 87.841797 C 29.452908 87.351344 29.236545 87.0308 29.136719 86.878906 L 30.919922 83.427734 C 31.058811 83.15865 31.254123 83.025391 31.505859 83.025391 C 31.757596 83.025391 31.977431 83.070945 32.164062 83.162109 L 32.052734 82.556641 C 31.935547 82.53033 31.806857 82.515625 31.667969 82.515625 C 31.589843 82.515625 31.469618 82.540246 31.304688 82.587891 C 31.144097 82.631268 31.0204 82.652344 30.933594 82.652344 C 30.846788 82.652344 30.719618 82.631268 30.554688 82.587891 C 30.394097 82.540246 30.27539 82.515625 30.197266 82.515625 z M 9.1425781 82.517578 C 9.0080296 82.517578 8.8763021 82.53033 8.7460938 82.556641 L 8.6347656 83.162109 C 8.8344184 83.070945 9.0622829 83.025391 9.3183594 83.025391 C 9.409505 83.025391 9.48763 83.065949 9.5527344 83.148438 C 9.6178387 83.226589 9.6503906 83.321243 9.6503906 83.429688 L 9.8320312 91.027344 C 9.8320312 91.135788 9.7979599 91.22849 9.7285156 91.306641 C 9.6634115 91.384792 9.5787761 91.423828 9.4746094 91.423828 C 9.218533 91.423828 8.984158 91.379795 8.7714844 91.292969 L 8.875 91.892578 C 9.0269097 91.918889 9.1701389 91.931641 9.3046875 91.931641 C 9.4218751 91.931641 9.5976563 91.910565 9.8320312 91.867188 C 10.066406 91.82381 10.24566 91.802734 10.367188 91.802734 C 10.488715 91.802734 10.666016 91.82381 10.900391 91.867188 C 11.139106 91.910565 11.316406 91.931641 11.433594 91.931641 C 11.572483 91.931641 11.715712 91.918889 11.863281 91.892578 L 11.96875 91.292969 C 11.751737 91.379795 11.517361 91.423828 11.265625 91.423828 C 11.161461 91.423828 11.073353 91.384792 11.003906 91.306641 C 10.934459 91.22849 10.900391 91.135788 10.900391 91.027344 L 10.939453 89.119141 L 12.261719 87.347656 C 12.956163 87.955301 13.503038 88.650414 13.902344 89.431641 C 14.301649 90.212867 14.5 91.0332 14.5 91.892578 C 14.699653 91.832134 14.924479 91.802734 15.171875 91.802734 C 15.310764 91.802734 15.514106 91.82381 15.783203 91.867188 C 16.0523 91.910565 16.255643 91.931641 16.394531 91.931641 C 16.53342 91.931641 16.673611 91.918889 16.8125 91.892578 L 16.916016 91.292969 C 16.67296 91.379795 16.401041 91.423828 16.101562 91.423828 C 16.006076 91.423828 15.919922 91.399207 15.841797 91.351562 C 15.768009 91.303847 15.722436 91.238739 15.705078 91.15625 C 15.210287 89.298614 14.319879 87.682498 13.035156 86.306641 L 15.158203 83.429688 C 15.349176 83.160603 15.539497 83.025391 15.730469 83.025391 C 15.951823 83.025391 16.152127 83.070945 16.330078 83.162109 L 16.21875 82.556641 C 16.101562 82.53033 15.987847 82.517578 15.875 82.517578 C 15.788194 82.517578 15.659505 82.542199 15.490234 82.589844 C 15.320964 82.633222 15.190755 82.654297 15.099609 82.654297 C 15.008464 82.654297 14.878256 82.633222 14.708984 82.589844 C 14.539714 82.542199 14.409505 82.517578 14.318359 82.517578 C 14.201172 82.517578 14.088976 82.53033 13.980469 82.556641 L 13.875 83.162109 C 14.052952 83.070945 14.253255 83.025391 14.474609 83.025391 C 14.544056 83.025391 14.5816 83.069423 14.585938 83.15625 C 14.594613 83.243077 14.565102 83.334256 14.5 83.429688 L 10.972656 88.494141 L 11.089844 83.429688 C 11.089844 83.321243 11.122398 83.226589 11.1875 83.148438 C 11.252604 83.065949 11.330729 83.025391 11.421875 83.025391 C 11.677952 83.025391 11.905816 83.070945 12.105469 83.162109 L 11.994141 82.556641 C 11.863933 82.53033 11.732205 82.517578 11.597656 82.517578 C 11.458768 82.517578 11.251953 82.542199 10.978516 82.589844 C 10.709418 82.633222 10.506076 82.654297 10.367188 82.654297 C 10.228299 82.654297 10.023003 82.633222 9.7539062 82.589844 C 9.484809 82.542199 9.281467 82.517578 9.1425781 82.517578 z M 17.671875 82.517578 C 17.576389 82.517578 17.486762 82.53033 17.404297 82.556641 L 17.300781 83.162109 C 17.43967 83.070945 17.608941 83.025391 17.808594 83.025391 C 17.891056 83.025391 17.952688 83.064427 17.996094 83.142578 C 18.0395 83.220729 18.0625 83.316905 18.0625 83.429688 C 18.0625 84.293403 18.296875 85.271474 18.765625 86.365234 C 19.238715 87.458994 19.788628 88.300332 20.417969 88.890625 L 20.417969 91.027344 C 20.417969 91.148802 20.365886 91.246499 20.261719 91.320312 C 20.157552 91.390001 20.032335 91.423828 19.884766 91.423828 C 19.511502 91.423828 19.16645 91.381749 18.849609 91.294922 L 18.953125 91.892578 C 19.183159 91.918889 19.411024 91.931641 19.636719 91.931641 C 19.779948 91.931641 19.998264 91.910565 20.289062 91.867188 C 20.579861 91.82381 20.801215 91.802734 20.953125 91.802734 C 21.100695 91.802734 21.318577 91.82381 21.609375 91.867188 C 21.900174 91.910565 22.121528 91.931641 22.273438 91.931641 C 22.503472 91.931641 22.729818 91.918889 22.951172 91.892578 L 23.0625 91.294922 C 22.732639 91.381749 22.381076 91.423828 22.007812 91.423828 C 21.864583 91.423828 21.740885 91.390001 21.636719 91.320312 C 21.536892 91.246499 21.486328 91.148802 21.486328 91.027344 L 21.486328 88.761719 C 22.254558 88.019532 22.878039 87.15017 23.355469 86.15625 C 23.932726 84.975734 24.220703 83.776267 24.220703 82.556641 C 24.01237 82.621352 23.786024 82.654297 23.542969 82.654297 C 23.40842 82.654297 23.210069 82.631268 22.945312 82.587891 C 22.680555 82.540246 22.478732 82.517578 22.339844 82.517578 C 22.205295 82.517578 22.071615 82.53033 21.941406 82.556641 L 21.832031 83.162109 C 22.070746 83.070945 22.332682 83.025391 22.619141 83.025391 C 22.731988 83.025391 22.828124 83.059217 22.90625 83.128906 C 22.984373 83.193973 23.039495 83.290149 23.074219 83.416016 C 23.108942 83.537545 23.133464 83.661243 23.146484 83.787109 C 23.159505 83.908638 23.166016 84.050298 23.166016 84.210938 C 23.166016 85.074653 22.93164 85.917583 22.462891 86.742188 C 22.154731 87.306454 21.744575 87.824204 21.232422 88.292969 C 20.672526 87.607173 20.242839 86.847023 19.943359 86.013672 C 19.648221 85.176054 19.5 84.315163 19.5 83.429688 C 19.5 83.160603 19.581597 83.025391 19.742188 83.025391 C 19.9375 83.025391 20.109809 83.070945 20.261719 83.162109 L 20.152344 82.556641 C 20.061198 82.53033 19.96658 82.517578 19.871094 82.517578 C 19.745226 82.517578 19.561414 82.542199 19.318359 82.589844 C 19.079644 82.633222 18.898871 82.654297 18.777344 82.654297 C 18.655816 82.654297 18.472005 82.633222 18.224609 82.589844 C 17.981554 82.542199 17.797743 82.517578 17.671875 82.517578 z M 58.160156 82.517578 C 58.003906 82.517578 57.841146 82.53033 57.671875 82.556641 L 57.560547 83.162109 C 57.799263 83.070945 58.05816 83.025391 58.335938 83.025391 C 58.570316 83.025391 58.715065 83.16705 58.771484 83.449219 C 58.82791 83.726979 58.801866 84.021522 58.693359 84.333984 L 56.65625 91.027344 C 56.625871 91.135788 56.575306 91.22849 56.505859 91.306641 C 56.440755 91.384792 56.36263 91.423828 56.271484 91.423828 C 56.080513 91.423828 55.911242 91.379795 55.763672 91.292969 L 55.867188 91.892578 C 55.958333 91.918889 56.052952 91.931641 56.148438 91.931641 C 56.226563 91.931641 56.34375 91.910565 56.5 91.867188 C 56.65625 91.82381 56.774956 91.802734 56.857422 91.802734 C 56.939887 91.802734 57.057075 91.82381 57.208984 91.867188 C 57.360895 91.910565 57.478082 91.931641 57.560547 91.931641 C 57.656033 91.931641 57.748698 91.918889 57.839844 91.892578 L 57.951172 91.292969 C 57.794922 91.379795 57.625651 91.423828 57.443359 91.423828 C 57.391275 91.423828 57.352213 91.404345 57.326172 91.365234 C 57.300131 91.321643 57.287109 91.271022 57.287109 91.214844 C 57.291454 91.153688 57.302954 91.092055 57.320312 91.027344 L 57.710938 89.640625 C 58.06684 89.393229 58.465495 89.269531 58.908203 89.269531 L 61.042969 89.269531 L 61.578125 91.027344 C 61.604173 91.13145 61.594187 91.224152 61.550781 91.306641 C 61.507379 91.384792 61.440755 91.423828 61.349609 91.423828 C 61.093533 91.423828 60.857639 91.379795 60.640625 91.292969 L 60.75 91.892578 C 60.893229 91.918889 61.034939 91.931641 61.173828 91.931641 C 61.295356 91.931641 61.472656 91.910565 61.707031 91.867188 C 61.945746 91.82381 62.125 91.802734 62.242188 91.802734 C 62.363716 91.802734 62.541016 91.82381 62.775391 91.867188 C 63.009766 91.910565 63.187066 91.931641 63.308594 91.931641 C 63.447482 91.931641 63.589193 91.918889 63.732422 91.892578 L 63.84375 91.292969 C 63.626736 91.379795 63.388889 91.423828 63.132812 91.423828 C 63.015625 91.423828 62.911458 91.386313 62.820312 91.3125 C 62.729164 91.238687 62.669051 91.144464 62.638672 91.027344 L 60.855469 84.001953 C 60.725257 83.485402 60.681203 83.003645 60.724609 82.556641 C 60.394748 82.621352 60.038195 82.654297 59.65625 82.654297 C 59.486979 82.654297 59.238064 82.633222 58.908203 82.589844 C 58.578342 82.542199 58.329427 82.517578 58.160156 82.517578 z M 38.732422 82.556641 C 38.320095 82.556641 37.904948 82.602195 37.488281 82.693359 L 37.359375 84.894531 L 37.867188 84.894531 C 37.867187 84.365038 37.946832 83.972868 38.107422 83.716797 C 38.268012 83.460726 38.560981 83.332031 38.986328 83.332031 C 39.212023 83.332031 39.550564 83.356652 40.001953 83.404297 C 40.457682 83.447675 40.797743 83.46875 41.023438 83.46875 C 40.537326 84.32379 40.046007 85.694031 39.546875 87.582031 C 39.047743 89.470031 38.796875 90.907334 38.796875 91.892578 C 39.135417 91.840667 39.473958 91.840667 39.8125 91.892578 C 39.8125 90.599209 40.098958 89.103317 40.671875 87.40625 C 41.249132 85.709183 41.931206 84.346982 42.716797 83.318359 L 42.462891 82.693359 C 42.072265 82.871279 41.66059 82.960938 41.226562 82.960938 C 40.940104 82.960938 40.523438 82.894308 39.976562 82.759766 C 39.429687 82.625223 39.01454 82.556641 38.732422 82.556641 z M 46.193359 82.933594 C 46.610026 82.933594 46.969618 83.075324 47.273438 83.357422 C 47.577257 83.63952 47.730469 83.983021 47.730469 84.386719 C 47.730469 85.072443 47.294271 85.666455 46.421875 86.169922 C 46.209202 86.03538 46.029948 85.916678 45.886719 85.8125 C 45.74349 85.703984 45.597222 85.57529 45.445312 85.427734 C 45.297743 85.275841 45.183594 85.113035 45.105469 84.939453 C 45.031684 84.7658 44.996094 84.58199 44.996094 84.386719 C 44.996094 83.991697 45.10829 83.649717 45.333984 83.363281 C 45.559679 83.076846 45.846137 82.933594 46.193359 82.933594 z M 52.443359 82.933594 C 52.860026 82.933594 53.219618 83.075324 53.523438 83.357422 C 53.827257 83.63952 53.980469 83.983021 53.980469 84.386719 C 53.980469 85.072443 53.544271 85.666455 52.671875 86.169922 C 52.459202 86.03538 52.279948 85.916678 52.136719 85.8125 C 51.99349 85.703984 51.847222 85.57529 51.695312 85.427734 C 51.547743 85.275841 51.433594 85.113035 51.355469 84.939453 C 51.281684 84.7658 51.246094 84.58199 51.246094 84.386719 C 51.246094 83.991697 51.35829 83.649717 51.583984 83.363281 C 51.809679 83.076846 52.096137 82.933594 52.443359 82.933594 z M 74.787109 82.933594 C 75.125651 82.933594 75.41862 83.00522 75.666016 83.148438 C 75.917752 83.287317 76.118055 83.486116 76.265625 83.742188 C 76.413192 83.993921 76.520397 84.281875 76.589844 84.607422 C 76.659291 84.932897 76.695312 85.295953 76.695312 85.695312 C 76.695312 86.502566 76.558594 87.077024 76.285156 87.419922 C 76.011719 87.76282 75.511936 87.933594 74.787109 87.933594 C 74.370442 87.933594 73.953776 87.84596 73.537109 87.667969 L 73.640625 83.429688 C 73.644963 83.317119 73.677517 83.225939 73.738281 83.15625 C 73.803385 83.086988 73.899523 83.036437 74.025391 83.005859 C 74.151259 82.975282 74.268446 82.955799 74.376953 82.947266 C 74.48546 82.938732 74.622179 82.933594 74.787109 82.933594 z M 59.363281 83.826172 L 60.880859 88.761719 L 57.964844 88.761719 L 59.363281 83.826172 z M 45.953125 86.996094 C 46.473958 87.347667 46.885634 87.71724 47.189453 88.103516 C 47.497613 88.489791 47.652344 88.920998 47.652344 89.398438 C 47.652344 89.763024 47.596788 90.105075 47.488281 90.421875 C 47.379774 90.738746 47.213976 91.0007 46.988281 91.208984 C 46.762587 91.41734 46.497179 91.521484 46.193359 91.521484 C 45.629123 91.521484 45.148872 91.313124 44.753906 90.896484 C 44.363282 90.479773 44.167969 89.979984 44.167969 89.398438 C 44.167969 88.47826 44.763889 87.67748 45.953125 86.996094 z M 52.203125 86.996094 C 52.723958 87.347667 53.135634 87.71724 53.439453 88.103516 C 53.747613 88.489791 53.902344 88.920998 53.902344 89.398438 C 53.902344 89.763024 53.846788 90.105075 53.738281 90.421875 C 53.629774 90.738746 53.463976 91.0007 53.238281 91.208984 C 53.012587 91.41734 52.747179 91.521484 52.443359 91.521484 C 51.879123 91.521484 51.398872 91.313124 51.003906 90.896484 C 50.613282 90.479773 50.417969 89.979984 50.417969 89.398438 C 50.417969 88.47826 51.013889 87.67748 52.203125 86.996094 z M 36.818359 88.117188 C 36.592665 88.208352 36.338759 88.253906 36.056641 88.253906 L 33.6875 88.253906 L 33.419922 89.144531 C 33.649957 89.057776 33.902344 89.015625 34.175781 89.015625 L 36.550781 89.015625 L 36.818359 88.117188 z "
       style="font-style:normal;font-variant:normal;font-weight:normal;font-stretch:normal;font-size:12.5px;line-height:23.4375px;font-family:'Antykwa Torunska Condensed';-inkscape-font-specification:'Antykwa Torunska Condensed, Normal';font-variant-ligatures:normal;font-variant-caps:normal;font-variant-numeric:normal;font-feature-settings:normal;text-align:start;letter-spacing:0px;word-spacing:0px;writing-mode:lr-tb;text-anchor:start;fill:#000000;fill-opacity:1;stroke:none;stroke-width:1px;stroke-linecap:butt;stroke-linejoin:miter;stroke-opacity:1" />
  </g>
</svg>
